<svg width="24" height="24" viewBox="0 0 24 24" fill="none" xmlns="http://www.w3.org/2000/svg">
<path d="M20.2273 13.247C19.4301 13.2514 18.7398 13.4396 18.1609 13.7199C17.9471 13.304 17.7333 12.9406 17.6978 12.6692C17.6577 12.354 17.6087 12.1613 17.6577 11.7848C17.7066 11.4083 17.9293 10.8742 17.9293 10.8304C17.9248 10.791 17.8803 10.5984 17.4216 10.594C16.9629 10.5896 16.5665 10.6816 16.522 10.7998C16.4774 10.918 16.3884 11.1894 16.3305 11.4696C16.2503 11.8811 15.4131 13.3389 14.9365 14.1051C14.7807 13.8074 14.6471 13.5447 14.6203 13.3345C14.5803 13.0194 14.5312 12.8267 14.5803 12.4502C14.6292 12.0737 14.8519 11.5396 14.8519 11.4959C14.8475 11.4565 14.8029 11.2638 14.3443 11.2595C13.8855 11.2551 13.4892 11.347 13.4447 11.4652C13.4001 11.5834 13.3511 11.8636 13.2532 12.135C13.1596 12.4065 12.0462 14.8406 11.7567 15.4753C11.6098 15.7993 11.4807 16.0576 11.3871 16.2327C11.2936 16.4078 11.3826 16.2458 11.3737 16.2634C11.2936 16.4122 11.249 16.4954 11.249 16.4954V16.4998C11.1867 16.6093 11.1199 16.7143 11.0887 16.7143C11.0664 16.7143 11.0219 16.421 11.0976 16.0182C11.2623 15.1733 11.6632 13.8556 11.6587 13.8074C11.6587 13.7855 11.7344 13.5535 11.4004 13.4353C11.0753 13.3171 10.9595 13.5141 10.9328 13.5141C10.9061 13.5141 10.8838 13.5841 10.8838 13.5841C10.8838 13.5841 11.2445 12.1001 10.1935 12.1001C9.53438 12.1001 8.62586 12.8049 8.17606 13.4485C7.89103 13.6017 7.28535 13.9256 6.64405 14.2715C6.3991 14.4029 6.14525 14.5429 5.90476 14.6699L5.85582 14.6173C4.58211 13.282 2.22621 12.3364 2.32418 10.5415C2.35981 9.88919 2.59139 8.16869 6.849 6.08482C10.3361 4.37746 13.1285 4.84589 13.6138 5.88782C14.3041 7.37629 12.1219 10.1431 8.4968 10.5415C7.11621 10.6947 6.39024 10.1694 6.20769 9.97237C6.01619 9.76661 5.98947 9.75785 5.91821 9.79725C5.80242 9.85854 5.87368 10.0424 5.91821 10.1519C6.0251 10.4277 6.47045 10.918 7.22755 11.1631C7.89108 11.3777 9.5122 11.4959 11.4717 10.7516C13.6673 9.91545 15.3819 7.59519 14.8787 5.65579C14.3665 3.68138 11.0353 3.03345 7.88667 4.1323C6.01169 4.78898 3.98089 5.8134 2.52014 7.1574C0.783267 8.75094 0.507149 10.1431 0.622941 10.721C1.02826 12.783 3.91854 14.127 5.07645 15.1207C5.01856 15.1513 4.96512 15.182 4.91613 15.2083C4.33717 15.4884 2.13268 16.6223 1.58045 17.8218C0.956954 19.179 1.67842 20.1553 2.1594 20.2866C3.64688 20.6938 5.16998 19.9626 5.99388 18.7587C6.81328 17.5548 6.71535 15.9919 6.3368 15.2783L6.32339 15.2521L6.77765 14.9894C7.07163 14.8187 7.36111 14.6611 7.61491 14.5253C7.47244 14.9062 7.36997 15.3571 7.31657 16.0138C7.25422 16.7843 7.57488 17.7824 7.99796 18.1764C8.18501 18.3471 8.40768 18.3516 8.54574 18.3516C9.03563 18.3516 9.2583 17.9531 9.50325 17.476C9.80609 16.8937 10.0733 16.2195 10.0733 16.2195C10.0733 16.2195 9.73928 18.0451 10.6523 18.0451C10.9863 18.0451 11.3203 17.6204 11.4717 17.4016V17.4059C11.4717 17.4059 11.4806 17.3928 11.4984 17.3622C11.5171 17.335 11.5349 17.3073 11.5519 17.279V17.2703C11.6855 17.0426 11.9839 16.5216 12.4292 15.6592C13.0037 14.5472 13.5559 13.1551 13.5559 13.1551C13.5559 13.1551 13.6094 13.4965 13.7742 14.0569C13.8721 14.3897 14.0859 14.753 14.2506 15.1076C14.117 15.2915 14.0369 15.3966 14.0369 15.3966L14.0413 15.401C13.9345 15.5411 13.8142 15.6899 13.6895 15.8387C13.2353 16.3728 12.692 16.9814 12.6207 17.1565C12.5361 17.3622 12.5539 17.5155 12.7187 17.6381C12.8389 17.7256 13.0527 17.7431 13.2798 17.7256C13.6896 17.6993 13.9746 17.5987 14.1171 17.5374C14.3398 17.4586 14.5936 17.3404 14.8386 17.1652C15.2839 16.8413 15.5556 16.3816 15.5289 15.7687C15.5155 15.4316 15.4042 15.0989 15.2661 14.7837C15.3062 14.7268 15.3463 14.6699 15.3863 14.6086C16.09 13.5973 16.6333 12.4853 16.6333 12.4853C16.6333 12.4853 16.6868 12.8268 16.8515 13.3872C16.9361 13.6717 17.1054 13.9826 17.2568 14.2891C16.5977 14.8188 16.1835 15.4317 16.041 15.8345C15.7782 16.5787 15.9831 16.9158 16.3706 16.9946C16.5442 17.0296 16.7936 16.9508 16.9807 16.872C17.2122 16.7976 17.4928 16.6706 17.7512 16.4824C18.1965 16.1584 18.624 15.7075 18.6018 15.099C18.5884 14.8188 18.5127 14.543 18.4103 14.2803C18.9714 14.0527 19.6973 13.9213 20.6192 14.0308C22.601 14.2584 22.9929 15.4755 22.9173 15.9833C22.8416 16.4912 22.4274 16.7713 22.2893 16.8589C22.1512 16.9421 22.1067 16.9727 22.1201 17.034C22.1379 17.126 22.2002 17.1215 22.3205 17.1041C22.4852 17.0778 23.3626 16.6882 23.3982 15.7514C23.4517 14.5473 22.2893 13.2339 20.2273 13.247ZM4.94285 18.3122C4.28818 19.017 3.36631 19.2841 2.9744 19.0564C2.55131 18.8156 2.71605 17.7781 3.52218 17.0295C4.01206 16.5742 4.64892 16.1539 5.06755 15.8956C5.16107 15.8387 5.30358 15.7556 5.47282 15.6548C5.49954 15.6374 5.51735 15.6286 5.51735 15.6286C5.54853 15.6111 5.58416 15.5892 5.61978 15.5673C5.91817 16.6355 5.63314 17.5723 4.94285 18.3122ZM9.73038 15.112C9.50325 15.6592 9.02227 17.0645 8.73279 16.9857C8.48335 16.92 8.33197 15.8562 8.68376 14.8055C8.8619 14.2758 9.24045 13.6454 9.46312 13.4002C9.8239 13.0062 10.2158 12.8748 10.3138 13.0368C10.4296 13.247 9.87289 14.7705 9.73038 15.112ZM13.6806 16.9682C13.5827 17.0164 13.4936 17.0514 13.4535 17.0251C13.4223 17.0076 13.4936 16.942 13.4936 16.942C13.4936 16.942 13.9879 16.421 14.1838 16.1802C14.2952 16.0402 14.4288 15.8782 14.5713 15.6943V15.7468C14.5713 16.3772 13.9568 16.7975 13.6806 16.9682ZM16.7268 16.2852C16.6555 16.2327 16.6645 16.0707 16.9049 15.5629C16.9985 15.3615 17.2122 15.0244 17.5819 14.7048C17.6264 14.8362 17.6532 14.9631 17.6487 15.0813C17.6443 15.8693 17.0742 16.1627 16.7268 16.2852Z" fill="#CF649A"/>
</svg>
