<svg width="24" height="24" viewBox="0 0 24 24" fill="none" xmlns="http://www.w3.org/2000/svg">
<path fill-rule="evenodd" clip-rule="evenodd" d="M12 12.3C12 10.3671 13.6119 8.80005 15.6 8.80005C17.5882 8.80005 19.2 10.3671 19.2 12.3C19.2 14.233 17.5882 15.8 15.6 15.8C13.6119 15.8 12 14.233 12 12.3Z" fill="#1ABCFE"/>
<path fill-rule="evenodd" clip-rule="evenodd" d="M4.80005 19.3C4.80005 17.3671 6.41182 15.8 8.40005 15.8H12V19.3C12 21.233 10.3882 22.8 8.40005 22.8C6.41182 22.8 4.80005 21.233 4.80005 19.3Z" fill="#0ACF83"/>
<path fill-rule="evenodd" clip-rule="evenodd" d="M12 1.80005V8.80005L15.6 8.80005C17.5882 8.80005 19.2 7.23301 19.2 5.30005C19.2 3.36705 17.5882 1.80005 15.6 1.80005H12Z" fill="#FF7262"/>
<path fill-rule="evenodd" clip-rule="evenodd" d="M4.80005 5.30005C4.80005 7.23301 6.41182 8.80005 8.40005 8.80005H12V1.80005H8.40005C6.41182 1.80005 4.80005 3.36705 4.80005 5.30005Z" fill="#F24E1E"/>
<path fill-rule="evenodd" clip-rule="evenodd" d="M4.80005 12.3C4.80005 14.233 6.41182 15.8 8.40005 15.8H12L12 8.80005H8.40005C6.41182 8.80005 4.80005 10.3671 4.80005 12.3Z" fill="#A259FF"/>
</svg>
