<svg width="24" height="24" viewBox="0 0 24 24" fill="none" xmlns="http://www.w3.org/2000/svg">
<path d="M20.3856 10.1263C20.3856 7.91803 19.502 5.80023 17.9292 4.23876C16.3563 2.67729 14.2231 1.80007 11.9987 1.80007C10.0003 1.79657 8.06628 2.50188 6.54535 3.78889C5.02441 5.0759 4.01658 6.85993 3.70351 8.81944C3.39044 10.7789 3.79271 12.785 4.83783 14.4761C5.88295 16.1672 7.50217 17.432 9.40363 18.0426V22.2145C9.40363 22.3698 9.46576 22.5187 9.57637 22.6285C9.68698 22.7384 9.837 22.8 9.99342 22.8H13.9745C14.131 22.8 14.281 22.7384 14.3916 22.6285C14.5022 22.5187 14.5643 22.3698 14.5643 22.2145V18.0485C16.2556 17.5099 17.731 16.4524 18.7782 15.0282C19.8254 13.604 20.3902 11.8866 20.3915 10.1234L20.3856 10.1263ZM11.9987 12.9368C11.2471 12.9368 10.5263 12.6404 9.99481 12.1128C9.46334 11.5851 9.16476 10.8695 9.16476 10.1234C9.16476 9.37718 9.46334 8.66156 9.99481 8.13393C10.5263 7.60631 11.2471 7.30989 11.9987 7.30989C12.7507 7.30989 13.4719 7.60646 14.0037 8.13436C14.5354 8.66226 14.8342 9.37825 14.8342 10.1248C14.8342 10.8714 14.5354 11.5874 14.0037 12.1153C13.4719 12.6432 12.7507 12.9397 11.9987 12.9397V12.9368Z" fill="#2684FF"/>
<path d="M11.9987 1.80007L11.9987 7.31282C12.7507 7.31282 13.4719 7.60939 14.0037 8.13729C14.5354 8.66519 14.8342 9.38118 14.8342 10.1277C14.8342 10.8743 14.5354 11.5903 14.0037 12.1182C13.4719 12.6461 12.7507 12.9427 11.9987 12.9427C12.687 12.9427 13.3471 13.2141 13.8337 13.6973C14.3204 14.1804 14.5938 14.8357 14.5938 15.519V18.0485C16.4962 17.4377 18.1163 16.1723 19.1618 14.4803C20.2074 12.7884 20.6097 10.7813 20.2962 8.82092C19.9828 6.86051 18.9742 5.07577 17.4522 3.78846C15.9303 2.50115 13.9952 1.79598 11.9958 1.80007H11.9987Z" fill="url(#paint0_linear_1_72)"/>
<defs>
<linearGradient id="paint0_linear_1_72" x1="16.1922" y1="16.5407" x2="16.1922" y2="7.69634" gradientUnits="userSpaceOnUse">
<stop offset="0.18" stop-color="#0052CC"/>
<stop offset="1" stop-color="#2684FF"/>
</linearGradient>
</defs>
</svg>
