<svg width="24" height="24" viewBox="0 0 24 24" fill="none" xmlns="http://www.w3.org/2000/svg">
<path d="M12 1.80005C6.36712 1.80005 1.80005 6.43863 1.80005 12.1598C1.80005 17.0142 5.09128 21.076 9.52826 22.2C9.48066 22.0602 9.45005 21.8979 9.45005 21.6968V19.9261C9.03609 19.9261 8.34253 19.9261 8.16826 19.9261C7.47038 19.9261 6.84992 19.6213 6.549 19.055C6.21495 18.4256 6.15714 17.4631 5.32923 16.8743C5.08359 16.6783 5.27058 16.4547 5.55367 16.485C6.0764 16.6352 6.50992 16.9995 6.91788 17.5399C7.32421 18.0812 7.51546 18.2038 8.27451 18.2038C8.64255 18.2038 9.19337 18.1822 9.71183 18.0993C9.99066 17.3802 10.4726 16.718 11.0616 16.4055C7.66505 16.0507 6.04411 14.3344 6.04411 12.0043C6.04411 11.0012 6.46484 10.0309 7.17972 9.21329C6.94513 8.4018 6.65015 6.74682 7.26982 6.11659C8.79808 6.11659 9.72204 7.12324 9.9439 7.39516C10.7055 7.13013 11.5419 6.9799 12.4208 6.9799C13.3014 6.9799 14.1412 7.13013 14.9045 7.39686C15.1238 7.12665 16.0486 6.11659 17.5803 6.11659C18.2025 6.74767 17.9041 8.40954 17.667 9.21932C18.3776 10.0351 18.7958 11.0029 18.7958 12.0043C18.7958 14.3327 17.1774 16.0481 13.7859 16.4047C14.7192 16.8993 15.4 18.2892 15.4 19.3364V21.6968C15.4 21.7865 15.3805 21.8513 15.3703 21.9281C19.3449 20.5131 22.2 16.6801 22.2 12.1598C22.2 6.43863 17.633 1.80005 12 1.80005Z" fill="black"/>
</svg>
