<svg width="24" height="24" viewBox="0 0 24 24" fill="none" xmlns="http://www.w3.org/2000/svg">
<path d="M21.6 18.9334C21.6 20.4065 20.4065 21.6 18.9334 21.6H5.06671C3.59418 21.6 2.40002 20.4065 2.40002 18.9334V5.06671C2.40002 3.59365 3.59418 2.40002 5.06671 2.40002H18.9334C20.4065 2.40002 21.6 3.59365 21.6 5.06671V18.9334Z" fill="#673AB7"/>
<path d="M16.8162 12.8534C16.4696 12.3734 15.9682 12.0427 15.3229 11.8667C15.3229 11.8667 15.8669 11.6694 16.3576 10.9334C16.6509 10.4641 16.8002 9.89872 16.8002 9.2374C16.8002 8.09075 16.3842 7.21073 15.5523 6.60807C14.7203 6.00542 13.7816 5.60005 12.1869 5.60005H7.20023V18.4001H12.7629C14.2722 18.3894 15.4083 18.0641 16.1816 17.4401C16.9496 16.8054 17.3336 15.8667 17.3336 14.6134C17.3336 13.9201 17.1629 13.3334 16.8162 12.8534ZM10.4002 7.73342C10.4002 7.73342 12.6242 7.73342 12.6669 7.73342C13.4776 7.73342 14.1336 8.38937 14.1336 9.20005C14.1336 10.0107 13.4776 10.6667 12.6669 10.6667C12.6242 10.6667 10.4002 10.6667 10.4002 10.6667V7.73342ZM13.0669 16.2667H10.4002V13.0667H13.0669C13.9523 13.0667 14.6669 13.7814 14.6669 14.6667C14.6669 15.5521 13.9523 16.2667 13.0669 16.2667Z" fill="white"/>
</svg>
