<svg xmlns="http://www.w3.org/2000/svg">
	<symbol id="ico-outlink" viewBox="0 0 24 24">
		<path xmlns="http://www.w3.org/2000/svg" fill="currentColor" fill-rule="evenodd" d="M13.2 4a.8.8 0 0 1 .8-.8h6a.8.8 0 0 1 .8.8v6a.8.8 0 0 1-1.6 0V5.931l-8.634 8.635a.8.8 0 0 1-1.131-1.132L18.069 4.8H14a.8.8 0 0 1-.8-.8ZM4.02 6.02A2.8 2.8 0 0 1 6 5.2h4a.8.8 0 0 1 0 1.6H6A1.2 1.2 0 0 0 4.8 8v10A1.2 1.2 0 0 0 6 19.2h10a1.2 1.2 0 0 0 1.2-1.2v-4a.8.8 0 0 1 1.6 0v4a2.8 2.8 0 0 1-2.8 2.8H6A2.8 2.8 0 0 1 3.2 18V8a2.8 2.8 0 0 1 .82-1.98Z" clip-rule="evenodd"/>
	</symbol>
  <symbol id="ico-dark" viewBox="0 0 24 24">
    <path fill="currentColor" d="M20.962 12.79A9 9 0 1 1 11.172 3a7 7 0 0 0 9.79 9.79Z"/>
  </symbol>
  <symbol id="ico-light" viewBox="0 0 24 24">
    <path fill="currentColor" fill-rule="evenodd" d="M12.9 1a.9.9 0 1 0-1.8 0v2a.9.9 0 1 0 1.8 0V1Zm7.586 3.927a1 1 0 1 0-1.414-1.414l-1.42 1.42a1 1 0 1 0 1.415 1.414l1.42-1.42ZM6 12a6 6 0 1 1 12 0 6 6 0 0 1-12 0Zm-6 0a1 1 0 0 1 1-1h2a1 1 0 1 1 0 2H1a1 1 0 0 1-1-1Zm21-1a1 1 0 1 0 0 2h2a1 1 0 1 0 0-2h-2ZM6.347 17.653a1 1 0 0 1 0 1.414l-1.42 1.42a1 1 0 0 1-1.414-1.414l1.42-1.42a1 1 0 0 1 1.414 0Zm12.72 0a1 1 0 0 0-1.415 1.414l1.42 1.42a1 1 0 0 0 1.415-1.414l-1.42-1.42ZM13 21a1 1 0 1 0-2 0v2a1 1 0 1 0 2 0v-2ZM3.513 3.513a1 1 0 0 1 1.414 0l1.42 1.42a1 1 0 0 1-1.414 1.414l-1.42-1.42a1 1 0 0 1 0-1.414Z" clip-rule="evenodd"/><defs><clipPath id="a"><path fill="#fff" d="M0 0h24v24H0z"/></clipPath></defs>
  </symbol>
  <symbol id="ico-top" viewBox="0 0 24 24">
    <path fill="currentColor" fill-rule="evenodd" d="M11.434 2.434a.8.8 0 0 1 1.132 0l7 7a.8.8 0 1 1-1.131 1.132L12.8 4.93V21a.8.8 0 0 1-1.6 0V4.931l-5.634 5.635a.8.8 0 1 1-1.131-1.132l7-7Z" clip-rule="evenodd"/>
  </symbol>
  <symbol id="ico-github" viewBox="0 0 24 24">
    <path xmlns="http://www.w3.org/2000/svg" fill="currentColor" d="M10.56 18.74c-.253.027-.467.054-.68.077-1.113.11-2.083-.192-2.817-1.064-.229-.272-.359-.625-.554-.928a26.494 26.494 0 0 0-.944-1.405c-.114-.157-.313-.25-.466-.383-.05-.043-.065-.123-.099-.188.069-.027.134-.073.203-.081.878-.08 1.497.326 1.93 1.06.538.912 1.317 1.411 2.376 1.411.305 0 .611-.103.913-.172.057-.016.126-.104.134-.17.053-.398.103-.797.286-1.162.069-.134.15-.261.23-.4-.31-.06-.608-.107-.902-.18-1.357-.345-2.476-1.028-3.126-2.325a3.907 3.907 0 0 1-.412-1.62c-.031-.874-.02-1.753.156-2.617.126-.606.356-1.17.814-1.607.1-.096.119-.18.065-.327a3.433 3.433 0 0 1-.065-2.18c.046-.157.088-.314.134-.479 1.047.2 1.67.91 2.254 1.696.604-.449 1.318-.487 2.014-.533.825-.054 1.654-.042 2.476.092.428.069.691.157 1.108.407.36-.373.695-.749 1.066-1.09a2.302 2.302 0 0 1 1.058-.537c.111-.027.169-.016.214.107.31.848.356 1.692.016 2.54-.046.116-.042.196.053.288.55.526.802 1.205.887 1.938.076.68.118 1.363.118 2.046 0 .97-.287 1.86-.894 2.624-.428.541-.982.929-1.609 1.22a6.447 6.447 0 0 1-1.899.526c-.015.004-.03.016-.057.027.45.649.523 1.378.516 2.134a190.079 190.079 0 0 0 0 3.3c0 .173-.05.215-.218.215a363.143 363.143 0 0 0-4.07 0c-.168 0-.22-.054-.22-.219.007-.595.003-1.19.003-1.784.008-.088.008-.165.008-.257Z"/>
  </symbol>
</svg>

