<svg xmlns="http://www.w3.org/2000/svg">
	<symbol id="ico-outlink" viewBox="0 0 24 24">
		<path xmlns="http://www.w3.org/2000/svg" fill="currentColor" fill-rule="evenodd" d="M13.2 4a.8.8 0 0 1 .8-.8h6a.8.8 0 0 1 .8.8v6a.8.8 0 0 1-1.6 0V5.931l-8.634 8.635a.8.8 0 0 1-1.131-1.132L18.069 4.8H14a.8.8 0 0 1-.8-.8ZM4.02 6.02A2.8 2.8 0 0 1 6 5.2h4a.8.8 0 0 1 0 1.6H6A1.2 1.2 0 0 0 4.8 8v10A1.2 1.2 0 0 0 6 19.2h10a1.2 1.2 0 0 0 1.2-1.2v-4a.8.8 0 0 1 1.6 0v4a2.8 2.8 0 0 1-2.8 2.8H6A2.8 2.8 0 0 1 3.2 18V8a2.8 2.8 0 0 1 .82-1.98Z" clip-rule="evenodd"/>
	</symbol>
  <symbol id="ico-dark" viewBox="0 0 24 24">
    <path fill="currentColor" d="M20.962 12.79A9 9 0 1 1 11.172 3a7 7 0 0 0 9.79 9.79Z"/>
  </symbol>
  <symbol id="ico-light" viewBox="0 0 24 24">
    <path fill="currentColor" fill-rule="evenodd" d="M12.9 1a.9.9 0 1 0-1.8 0v2a.9.9 0 1 0 1.8 0V1Zm7.586 3.927a1 1 0 1 0-1.414-1.414l-1.42 1.42a1 1 0 1 0 1.415 1.414l1.42-1.42ZM6 12a6 6 0 1 1 12 0 6 6 0 0 1-12 0Zm-6 0a1 1 0 0 1 1-1h2a1 1 0 1 1 0 2H1a1 1 0 0 1-1-1Zm21-1a1 1 0 1 0 0 2h2a1 1 0 1 0 0-2h-2ZM6.347 17.653a1 1 0 0 1 0 1.414l-1.42 1.42a1 1 0 0 1-1.414-1.414l1.42-1.42a1 1 0 0 1 1.414 0Zm12.72 0a1 1 0 0 0-1.415 1.414l1.42 1.42a1 1 0 0 0 1.415-1.414l-1.42-1.42ZM13 21a1 1 0 1 0-2 0v2a1 1 0 1 0 2 0v-2ZM3.513 3.513a1 1 0 0 1 1.414 0l1.42 1.42a1 1 0 0 1-1.414 1.414l-1.42-1.42a1 1 0 0 1 0-1.414Z" clip-rule="evenodd"/><defs><clipPath id="a"><path fill="#fff" d="M0 0h24v24H0z"/></clipPath></defs>
  </symbol>
  <symbol id="ico-top" viewBox="0 0 24 24">
    <path fill="currentColor" fill-rule="evenodd" d="M11.434 2.434a.8.8 0 0 1 1.132 0l7 7a.8.8 0 1 1-1.131 1.132L12.8 4.93V21a.8.8 0 0 1-1.6 0V4.931l-5.634 5.635a.8.8 0 1 1-1.131-1.132l7-7Z" clip-rule="evenodd"/>
  </symbol>
  <symbol id="ico-vue" viewBox="0 0 40 40">
    <path fill="#41B883" d="M30.2 6H37L20 35 3 6h13.005L20 12.725 23.91 6h6.29Z"/><path fill="#35495E" d="M9.715 6 20 23.484 30.2 6h-6.29L20 12.725 16.005 6h-6.29Z"/>
  </symbol>
  <symbol id="ico-sourcetree" viewBox="0 0 40 40">
    <path fill="#2684FF" d="M33.976 16.877c0-3.68-1.473-7.21-4.094-9.812A14.03 14.03 0 0 0 19.998 3a14.034 14.034 0 0 0-9.089 3.315 13.847 13.847 0 0 0-4.736 8.384 13.79 13.79 0 0 0 1.89 9.428 13.958 13.958 0 0 0 7.61 5.944v6.953c0 .259.103.507.288.69a.986.986 0 0 0 .695.286h6.635c.26 0 .51-.103.695-.286a.972.972 0 0 0 .288-.69v-6.943a13.979 13.979 0 0 0 7.023-5.034 13.815 13.815 0 0 0 2.689-8.175l-.01.005Zm-13.978 4.684a4.74 4.74 0 0 1-3.34-1.373 4.672 4.672 0 0 1-1.383-3.316c0-1.243.497-2.436 1.383-3.316a4.74 4.74 0 0 1 3.34-1.373c1.253 0 2.455.494 3.341 1.374a4.674 4.674 0 0 1 1.385 3.318 4.674 4.674 0 0 1-1.384 3.317 4.743 4.743 0 0 1-3.342 1.374v-.005Z"/><path fill="url(#a)" d="M19.998 3v9.188c1.253 0 2.455.494 3.341 1.374a4.674 4.674 0 0 1 1.385 3.318 4.674 4.674 0 0 1-1.384 3.317 4.743 4.743 0 0 1-3.342 1.374c1.147 0 2.247.452 3.058 1.258a4.278 4.278 0 0 1 1.267 3.036v4.216a13.962 13.962 0 0 0 7.613-5.947 13.794 13.794 0 0 0 1.891-9.433 13.852 13.852 0 0 0-4.74-8.387A14.039 14.039 0 0 0 19.993 3h.005Z"/><defs><linearGradient id="a" x1="26.987" x2="26.987" y1="27.568" y2="12.827" gradientUnits="userSpaceOnUse"><stop offset=".18" stop-color="#0052CC"/><stop offset="1" stop-color="#2684FF"/></linearGradient></defs>
  </symbol>
  <symbol id="ico-sass" viewBox="0 0 40 40">
    <path xmlns="http://www.w3.org/2000/svg" fill="#CF649A" d="M33.712 22.078a7.939 7.939 0 0 0-3.444.788c-.356-.693-.712-1.298-.772-1.75-.066-.526-.148-.847-.066-1.475.081-.627.452-1.517.452-1.59-.007-.066-.082-.387-.846-.394-.764-.008-1.425.146-1.5.343-.074.197-.222.65-.319 1.116-.133.686-1.528 3.116-2.323 4.393-.26-.497-.482-.934-.527-1.285-.067-.525-.148-.846-.067-1.474.082-.627.453-1.517.453-1.59-.007-.066-.081-.387-.846-.394-.764-.007-1.425.146-1.5.343-.073.197-.155.664-.318 1.116-.156.452-2.012 4.51-2.494 5.567-.245.54-.46.97-.616 1.263-.156.291-.008.021-.023.05l-.208.387v.008c-.104.182-.215.357-.267.357-.037 0-.111-.489.015-1.16.275-1.408.943-3.604.935-3.685 0-.036.126-.423-.43-.62-.542-.197-.735.131-.78.131-.044 0-.081.117-.081.117s.6-2.473-1.15-2.473c-1.1 0-2.613 1.175-3.363 2.247-.475.255-1.485.795-2.554 1.372-.408.219-.83.452-1.232.664l-.081-.088c-2.123-2.225-6.05-3.801-5.886-6.793.06-1.087.445-3.954 7.541-7.428 5.812-2.845 10.466-2.064 11.275-.328 1.15 2.48-2.487 7.092-8.529 7.756-2.3.256-3.51-.62-3.815-.948-.319-.343-.364-.358-.482-.292-.193.102-.075.408 0 .59.178.46.92 1.278 2.182 1.686 1.106.358 3.808.555 7.074-.686 3.659-1.393 6.517-5.26 5.678-8.493-.854-3.29-6.406-4.37-11.653-2.539C10.02 7.982 6.635 9.69 4.2 11.93c-2.895 2.656-3.355 4.976-3.162 5.94.676 3.436 5.493 5.676 7.423 7.332-.097.051-.186.102-.267.146-.965.467-4.64 2.357-5.56 4.356-1.039 2.262.163 3.89.965 4.108 2.48.679 5.018-.54 6.39-2.546 1.366-2.007 1.203-4.612.572-5.801l-.022-.044.757-.438c.49-.284.973-.547 1.396-.773-.238.635-.409 1.386-.498 2.48-.104 1.285.43 2.948 1.136 3.605.312.285.683.292.913.292.816 0 1.188-.664 1.596-1.46.504-.97.95-2.093.95-2.093s-.557 3.042.965 3.042c.556 0 1.113-.707 1.365-1.072v.007s.015-.022.045-.073a2.65 2.65 0 0 0 .09-.139v-.014c.222-.38.72-1.248 1.461-2.685.958-1.854 1.878-4.174 1.878-4.174s.09.57.364 1.503c.163.555.52 1.16.794 1.751-.223.307-.356.482-.356.482l.007.007c-.178.234-.378.482-.586.73-.757.89-1.663 1.904-1.781 2.196-.142.343-.112.598.163.803.2.146.556.175.935.146a4.227 4.227 0 0 0 1.396-.314 4.869 4.869 0 0 0 1.202-.62c.742-.54 1.195-1.306 1.15-2.328-.022-.561-.207-1.116-.438-1.641.067-.095.134-.19.2-.292 1.174-1.686 2.08-3.539 2.08-3.539s.088.57.363 1.503c.14.474.423.992.675 1.503-1.098.883-1.788 1.904-2.026 2.576-.438 1.24-.096 1.802.55 1.933.289.059.704-.073 1.016-.204a4.642 4.642 0 0 0 1.284-.65c.743-.54 1.455-1.29 1.418-2.305-.022-.467-.148-.927-.32-1.364.936-.38 2.146-.599 3.682-.416 3.303.38 3.957 2.407 3.83 3.254-.126.846-.816 1.313-1.046 1.46-.23.138-.305.189-.282.291.03.153.133.146.334.117.274-.044 1.737-.693 1.796-2.255.09-2.006-1.848-4.195-5.285-4.174ZM8.238 30.52c-1.091 1.175-2.627 1.62-3.28 1.24-.706-.4-.431-2.13.912-3.378.817-.758 1.878-1.459 2.576-1.89.156-.094.393-.233.675-.4.045-.03.075-.044.075-.044.052-.03.111-.066.17-.102.498 1.78.023 3.341-1.128 4.574Zm7.98-5.333c-.38.912-1.18 3.254-1.663 3.122-.416-.109-.668-1.882-.082-3.633.297-.883.928-1.934 1.299-2.342.601-.657 1.254-.876 1.418-.606.193.35-.735 2.89-.973 3.459ZM22.8 28.28c-.163.08-.312.139-.378.095-.052-.029.066-.138.066-.138s.824-.869 1.15-1.27c.186-.233.409-.503.646-.81v.088c0 1.05-1.024 1.75-1.484 2.035Zm5.077-1.138c-.119-.087-.104-.357.297-1.204.156-.335.512-.897 1.128-1.43.074.219.119.43.111.628-.007 1.313-.957 1.802-1.536 2.006Z"/>
  </symbol>
  <symbol id="ico-github" viewBox="0 0 40 40">
    <path xmlns="http://www.w3.org/2000/svg" fill="currentColor" d="M20 3C10.612 3 3 10.731 3 20.266 3 28.356 8.485 35.126 15.88 37a2.554 2.554 0 0 1-.13-.839V33.21h-2.136c-1.164 0-2.198-.508-2.7-1.452-.556-1.049-.652-2.653-2.032-3.634-.41-.327-.098-.7.374-.65.871.251 1.594.858 2.274 1.76.677.901.996 1.105 2.26 1.105.614 0 1.532-.035 2.396-.173.465-1.2 1.268-2.303 2.25-2.824-5.661-.59-8.363-3.451-8.363-7.335 0-1.672.702-3.289 1.893-4.652-.39-1.352-.882-4.11.15-5.16 2.547 0 4.087 1.677 4.457 2.13a12.562 12.562 0 0 1 4.128-.692c1.468 0 2.868.25 4.14.695.365-.45 1.907-2.134 4.46-2.134 1.037 1.052.54 3.822.144 5.171 1.184 1.36 1.881 2.973 1.881 4.642 0 3.88-2.697 6.74-8.35 7.334 1.556.824 2.69 3.141 2.69 4.886v3.934c0 .15-.032.258-.049.386C32.242 34.189 37 27.8 37 20.267 37 10.73 29.388 3 20 3Z"/>
  </symbol>
  <symbol id="ico-figma" viewBox="0 0 40 40">
    <path fill="#1ABCFE" fill-rule="evenodd" d="M20 20.5c0-3.222 2.686-5.833 6-5.833s6 2.611 6 5.833-2.686 5.833-6 5.833-6-2.611-6-5.833Z" clip-rule="evenodd"/><path fill="#0ACF83" fill-rule="evenodd" d="M8 32.167c0-3.222 2.686-5.834 6-5.834h6v5.834C20 35.388 17.314 38 14 38s-6-2.612-6-5.833Z" clip-rule="evenodd"/><path fill="#FF7262" fill-rule="evenodd" d="M20 3v11.667h6c3.314 0 6-2.612 6-5.834C32 5.612 29.314 3 26 3h-6Z" clip-rule="evenodd"/><path fill="#F24E1E" fill-rule="evenodd" d="M8 8.833c0 3.222 2.686 5.834 6 5.834h6V3h-6c-3.314 0-6 2.612-6 5.833Z" clip-rule="evenodd"/><path fill="#A259FF" fill-rule="evenodd" d="M8 20.5c0 3.222 2.686 5.833 6 5.833h6V14.667h-6c-3.314 0-6 2.611-6 5.833Z" clip-rule="evenodd"/>
  </symbol>
  <symbol id="ico-bootstrap" viewBox="0 0 40 40">
    <path fill="#673AB7" d="M36 31.556A4.444 4.444 0 0 1 31.556 36H8.444A4.444 4.444 0 0 1 4 31.556V8.444A4.444 4.444 0 0 1 8.444 4h23.112A4.444 4.444 0 0 1 36 8.444v23.112Z"/><path fill="#fff" d="M28.027 21.422c-.578-.8-1.413-1.35-2.489-1.644 0 0 .907-.33 1.725-1.556.488-.782.737-1.724.737-2.826 0-1.912-.693-3.378-2.08-4.383-1.386-1.004-2.95-1.68-5.609-1.68h-8.31v21.334h9.27c2.516-.018 4.41-.56 5.698-1.6 1.28-1.058 1.92-2.622 1.92-4.711 0-1.156-.284-2.134-.862-2.934ZM17.334 12.89h3.777a2.443 2.443 0 0 1 2.445 2.444 2.443 2.443 0 0 1-2.445 2.445h-3.777v-4.889Zm4.444 14.222h-4.444v-5.333h4.444a2.663 2.663 0 0 1 2.667 2.667 2.663 2.663 0 0 1-2.667 2.666Z"/>
  </symbol>
</svg>

